<?xml version="1.0" standalone="no"?>
<!DOCTYPE svg PUBLIC "-//W3C//DTD SVG 1.1//EN" "http://www.w3.org/Graphics/SVG/1.1/DTD/svg11.dtd" >
<!--
2013-9-30: Created.
-->
<svg>
<metadata>
Created by iconfont
</metadata>
<defs>

<font id="iconfont" horiz-adv-x="1024" >
  <font-face
    font-family="iconfont"
    font-weight="500"
    font-stretch="normal"
    units-per-em="1024"
    ascent="896"
    descent="-128"
  />
    <missing-glyph />
    
    <glyph glyph-name="bi" unicode="&#58906;" d="M891.808794 361.588707l64.906266 64.907289c35.719526 35.680641 35.719526 94.097098 0 129.813554L771.044336 741.943434c-35.680641 35.71748-94.133937 35.71748-129.813554 0l-64.906266-64.869427L891.808794 361.588707 891.808794 361.588707zM623.79876 559.795954l150.733003-150.73198 82.412988-82.376149L535.859919 5.639832c-76.033697-16.541745-92.317569 21.029966-82.377172 82.376149-77.592192 10.645454-135.116327 45.397956-148.655691 132.891659l216.454844 209.890334-19.434631 19.99131L279.496134 235.224718c-56.079226-4.301979-67.986417 31.4155-59.120492 85.900416C327.378677 428.128169 434.418552 535.168044 541.424658 642.172103L623.79876 559.795954 623.79876 559.795954zM165.630806 127.369268l-38.908148-170.464393 62.942541-62.941518 170.573887 38.794561L165.630806 127.369268zM157.05243-124.266843 85.794503-146.964798 108.492458-75.706871Z"  horiz-adv-x="1024" />

    
    <glyph glyph-name="27huiguiquxiantu" unicode="&#59043;" d="M191-52c0-17.7-14.3-32-32-32l0 0c-17.7 0-32 14.3-32 32L127 652c0 17.7 14.3 32 32 32l0 0c17.7 0 32-14.3 32-32L191-52zM159-84c-17.7 0-32 14.3-32 32l0 0c0 17.7 14.3 32 32 32l712 0c17.7 0 32-14.3 32-32l0 0c0-17.7-14.3-32-32-32L159-84zM834.5 292c0 17.7-14.3 32-32 32-6.7 0-13-2.1-18.1-5.6-20.7-7.7-33.2-9-55.8-9.5-198-4.5-159.6 117.3-257.5 117-90.3-0.3-170.8-87.7-208.8-133.6-6.8-5.9-11.2-14.6-11.2-24.3 0-17.7 14.3-32 32-32 9.9 0 18.7 4.5 24.6 11.5l0 0C338.2 282.2 410.5 367.8 473 363c39-3 48-113.1 255.6-111.1 26.8 0.3 58.7 4 79.2 8.5C822.9 263 834.5 276.1 834.5 292zM478.7 192.2m-64 0a64 64 0 1 0 128 0 64 64 0 1 0-128 0ZM281.7 449.5m-46 0a46 46 0 1 0 92 0 46 46 0 1 0-92 0ZM523 527.5m-32 0a32 32 0 1 0 64 0 32 32 0 1 0-64 0ZM794.7 138.2m-32 0a32 32 0 1 0 64 0 32 32 0 1 0-64 0ZM698.7 403.5m-46 0a46 46 0 1 0 92 0 46 46 0 1 0-92 0Z"  horiz-adv-x="1024" />

    
    <glyph glyph-name="shuzi" unicode="&#58976;" d="M243.2 192C239.542857 218.17456600000003 238.323809 241.157107 238.323809 274.992518L238.323809 598.024938C238.323809 636.3291770000001 239.542857 665.695761 243.2 703.361596 221.257143 700.80798 212.114285 700.169576 181.028572 700.169576L124.952381 700.169576C96.304762 700.169576 82.895238 700.80798 64 704L64 622.922693C86.552381 625.476309 104.228572 626.753117 126.780952 626.753117L156.038095 626.753117 156.038095 274.992518C156.038095 241.79551400000003 154.819048 216.89775399999996 151.161905 192L243.2 192ZM496.693955 195.75550099999998C528.498724 195.75550099999998 548.376705 194.50366699999995 571.733333 192L571.733333 274.621027C555.333999 271.491443 530.486522 269.613692 499.178702 269.613692L360.032834 269.613692C367.487077 293.39853300000004 373.450472 305.91687 388.358957 325.94621099999995 400.782696 342.845966 425.630172 369.13447399999995 447.495951 388.537898 512.09939 444.244499 517.068885 449.251834 530.983472 465.525672 555.333999 494.317848 566.266888 524.361858 566.266888 565.672372 566.266888 651.4229829999999 512.596339 704 425.630172 704 375.935219 704 336.676206 684.596577 311.82873 648.293398 293.441597 621.378973 284.496506 595.716381 277.539212 548.1467L348.602995 537.506113C352.081642 566.2982890000001 355.560289 580.06846 364.00843 595.090465 376.432168 619.501222 398.297948 632.01956 427.121021 632.01956 469.361731 632.01956 495.700056 605.731052 495.700056 563.1687039999999 495.700056 531.246944 481.785469 510.591687 436.066112 471.158924 386.371159 429.222494 371.462673 414.826406 354.06944 395.422983 321.76772 358.493887 299.404992 318.435208 285.987354 272.74327600000004 279.527011 250.21027200000003 276.048364 228.303181 273.066667 192.62591999999995 290.4599 195.12958700000001 298.411092 195.75550099999998 337.173156 195.75550099999998L496.693955 195.75550099999998ZM601.6 319.38461600000005C612.072727 283.692308 619.636364 267.692308 634.181818 250.46153600000002 667.345453 210.46153600000002 713.890912 192 781.963635 192 844.218182 192 893.090912 209.230771 925.090912 241.84615699999995 946.618182 264.61538399999995 960 298.461539 960 331.692308 960 368 951.27273 393.846154 932.07273 416.615384 911.709088 440.615384 890.181818 451.076923 848.87273 457.846154 879.709088 466.461539 892.509088 471.384616 905.309088 481.846154 930.32727 501.538461 945.454547 535.384616 945.454547 572.307692 945.454547 652.307692 882.618182 704 785.454547 704 738.909088 704 701.090912 692.923077 671.418182 670.1538459999999 644.07273 649.230769 630.690909 627.692308 616.145455 582.1538459999999L699.345453 567.384616C706.32727 592.615384 712.145453 603.0769230000001 723.781818 614.769231 737.745453 627.0769230000001 758.690912 633.8461540000001 787.2 633.8461540000001 836.654547 633.8461540000001 864 609.8461540000001 864 567.384616 864 520 829.67273 491.692308 771.490912 491.692308 746.47273 491.692308 733.67273 492.307692 715.054547 494.769231L715.054547 418.461539C734.836365 420.923077 751.709088 421.538461 777.309088 421.538461 802.909088 421.538461 830.254547 415.384616 844.218182 406.769231 865.163635 393.846154 876.8 370.461539 876.8 342.15384600000004 876.8 293.538461 840.145453 262.15384600000004 782.545453 262.15384600000004 754.618182 262.15384600000004 731.345453 270.15384600000004 712.145453 286.15384600000004 697.6 298.461539 692.363635 308.307692 684.8 336.61538399999995L601.6 319.38461600000005ZM64 128L960 128 960 64 64 64 64 128Z"  horiz-adv-x="1024" />

    
    <glyph glyph-name="plus-numberfill" unicode="&#59157;" d="M326.336 98.022v243.738c-9.216-8.794-21.286-17.574-36.237-26.355-14.938-8.794-28.365-15.373-40.269-19.763v36.979c21.389 10.061 40.090 22.234 56.102 36.544 16.013 14.31 27.341 28.186 33.997 41.651h24.653v-312.806l-38.246-0zM537.344 213.197c-21.811-17.856-38.502-33.574-50.035-47.181-11.546-13.606-19.955-27.418-25.19-41.434-3.264-8.499-4.749-17.357-4.467-26.56h205.914v36.762h-152.781c4.25 6.938 9.638 13.85 16.154 20.723 6.515 6.874 21.248 19.942 44.198 39.206 27.482 23.232 47.142 41.51 58.97 54.822 11.827 13.312 20.288 25.997 25.382 38.042 5.094 12.032 7.654 24.294 7.654 36.762 0 24.512-8.717 45.056-26.138 61.619s-41.088 24.858-70.976 24.858c-29.606 0-53.197-7.693-70.758-23.053-17.562-15.373-27.699-37.722-30.387-67.046l39.309-4.032c0.141 19.546 5.734 34.854 16.794 45.901s25.792 16.576 44.198 16.576c17.421 0 31.552-5.21 42.406-15.616 10.829-10.406 16.256-23.206 16.256-38.362 0-14.451-5.952-29.786-17.856-46.003-11.904-16.218-34.778-38.221-68.646-65.984zM804.032 124.16c-15.168 0-28.006 4.787-38.566 14.349-10.56 9.562-18.035 25.178-22.426 46.861l-38.246-5.094c2.547-25.92 12.851-47.040 30.925-63.322 18.048-16.294 40.768-24.435 68.096-24.435 30.31 0 55.386 9.459 75.226 28.365s29.76 41.958 29.76 69.158c0 20.109-5.094 36.864-15.296 50.253s-24.512 22.208-42.931 26.458c14.157 6.515 24.858 15.296 32.090 26.355s10.842 23.296 10.842 36.762c0 14.157-3.789 27.546-11.379 40.166-7.578 12.608-18.509 22.554-32.819 29.862-14.31 7.296-29.965 10.944-46.963 10.944-24.653 0-45.261-7.053-61.837-21.146-16.576-14.106-27.2-33.971-31.872-59.61l38.246-6.797c2.842 18.701 9.216 32.73 19.123 42.074s22.31 14.029 37.184 14.029c15.014 0 27.277-4.608 36.762-13.811 9.485-9.216 14.234-20.826 14.234-34.854 0-17.715-6.515-30.81-19.546-39.309s-27.699-12.749-43.994-12.749c-1.562 0-3.61 0.141-6.157 0.422l-4.25-33.574c10.765 2.829 19.763 4.25 26.982 4.25 17.715 0 32.294-5.709 43.776-17.101 11.469-11.405 17.216-25.894 17.216-43.456 0-18.419-6.195-33.869-18.586-46.323-12.403-12.493-27.61-18.726-45.594-18.726zM908.8 793.6v-250.944c0-14.144-11.456-25.6-25.6-25.6v0c-14.144 0-25.6 11.456-25.6 25.6l0 250.944c0 28.275-22.925 51.2-51.2 51.2h-281.6v-307.2c0-28.275-22.925-51.2-51.2-51.2l-307.2-0v-512c0-28.275 22.925-51.2 51.2-51.2l588.8 0c28.275 0 51.2 22.925 51.2 51.2v5.056c0 14.144 11.456 25.6 25.6 25.6v0c14.144 0 25.6-11.456 25.6-25.6l-0-5.056c0-56.32-46.080-102.4-102.4-102.4h-588.8c-56.32 0-102.4 46.080-102.4 102.4l0 512v51.2h0.026l358.413 358.4h332.762c56.32 0 102.4-46.080 102.4-102.4zM473.6 563.2v255.962l-281.562-281.562h255.962c14.144 0 25.6 11.456 25.6 25.6z"  horiz-adv-x="1024" />

    
    <glyph glyph-name="shaixuan" unicode="&#58920;" d="M861.79328 625.36704c5.6064 5.59616 11.90912 11.90912 16.00512 19.11808 30.67904 38.08768 34.34496 95.73888 8.6016 137.57952-25.9328 42.14272-64.37376 63.5136-114.24256 63.5136L154.93632 845.57824c-11.96032 0-24.32 0-35.08224-3.39456-26.35264-6.3744-50.46272-21.94944-67.93728-43.89888C34.11968 775.936 24.32 748.30848 24.32 720.4966400000001c0-36.09088 13.75232-68.07552 38.73792-90.10688 79.36512-76.64128 158.60224-155.84768 235.27424-232.5248l0-253.07136 0.13312-2.12992c4.16768-33.32096 29.48096-51.52256 60.11904-38.36416l0.53248 0.25088c16.57856 8.28416 26.08128 24.97024 26.08128 45.77792L385.19808 410.50112c0 17.5616-5.41184 31.88224-16.09216 42.56256-38.2976 38.30272-76.032 78.1056-112.51712 116.60288-37.61664 39.69024-76.5184 80.73216-117.17632 121.39008l-1.99168 2.01216-2.40128 1.18272c-0.5632 0.38912-1.81248 2.01728-2.75968 3.26144-1.03936 1.34656-2.05312 2.62144-3.11808 3.78368-7.01952 8.99584-8.4992 16.64-5.2224 26.9568 5.69856 12.89728 17.1264 27.6992 31.01184 27.6992l622.75584 0c7.58272 0 14.89408-4.096 20.5824-11.54048 7.37792-9.66144 10.12224-22.43584 7.08608-33.5872-1.54624-6.1696-4.1216-8.96512-11.89888-16.75776-85.75488-82.97984-167.66464-164.88448-254.38208-251.5968l-0.4608-0.46592c-8.78592-8.77568-18.8672-21.55008-18.8672-42.56768L519.74656-37.888000000000034c0-5.376 0-20.52608 11.07456-32.65024 0 0 3.36384-7.59296 17.86368-13.1072 17.92-6.8096 35.42528 0.9472 35.42528 0.9472l4.57216 3.42016c17.93024 13.45536 17.93024 34.41152 17.93024 46.93504l0 413.59872c42.88 42.7776 87.31136 84.38784 130.30912 124.65152C780.70784 546.89792 822.05696 585.6256000000001 861.79328 625.36704zM957.59872 65.06496000000004L722.3296 65.06496000000004c-24.58112 0-39.2704-19.97312-39.2704-39.28576l0-11.07968c0-24.58624 19.96288-39.27552 39.2704-39.27552l235.26912 0c24.59136 0 39.28064 19.968 39.28064 39.27552l0 11.07968C996.87936 49.27488000000005 981.0944 65.06496000000004 957.59872 65.06496000000004zM957.59872 206.21312L722.3296 206.21312c-24.58112 0-39.2704-19.97312-39.2704-39.28576l0-8.28928c0-24.59648 19.96288-39.29088 39.2704-39.29088l235.26912 0c24.59136 0 39.28064 19.97312 39.28064 39.29088l0 8.28928C996.87936 186.24 982.19008 206.21312 957.59872 206.21312zM957.59872 341.83680000000004L722.3296 341.83680000000004c-24.58112 0-39.2704-19.97312-39.2704-39.28576l0-5.53472c0-24.58112 19.96288-39.27552 39.2704-39.27552l235.26912 0c24.59136 0 39.28064 19.968 39.28064 39.27552l0 5.53472C996.87936 326.05183999999997 981.0944 341.83680000000004 957.59872 341.83680000000004z"  horiz-adv-x="1024" />

    
    <glyph glyph-name="bingtu-xianxing" unicode="&#59650;" d="M512 832C264.8 832 64 631.2 64 384s200.8-448 448-448 448 200.8 448 448S759.2 832 512 832z m311.2-223.2L576 444.8V762.4c100.8-16.8 188.8-73.6 247.2-153.6zM512 0c-212 0-384 172-384 384s172 384 384 384v-442.4l344 228.8c25.6-51.2 40-108.8 40-170.4 0-212-172-384-384-384z"  horiz-adv-x="1024" />

    
    <glyph glyph-name="tiaoxingtu-xianxing" unicode="&#59652;" d="M128 768h64v-768h-64zM320 384h64v-256h-64zM576 448h64v-320h-64zM704 640h64v-512h-64zM448 512h64v-384h-64zM128 0v64h768v-64z"  horiz-adv-x="1024" />

    
    <glyph glyph-name="zhexiantu-xianxing" unicode="&#59653;" d="M192 64V768h-64v-768h768v64zM605.6 256l-184 161.6L299.2 264l-50.4 40 164.8 206.4 184.8-163.2 248.8 296.8 48.8-40.8z"  horiz-adv-x="1024" />

    
    <glyph glyph-name="ditu" unicode="&#59654;" d="M357.6 64l-255.2-56c-20-4.8-39.2 10.4-39.2 31.2V326.4c0 15.2 10.4 28 24.8 31.2L243.2 392l53.6-53.6L139.2 304c-7.2-1.6-12.8-8-12.8-16v-188c0-10.4 9.6-17.6 19.2-16l192.8 42.4 12.8 3.2 12.8-2.4 306.4-60.8 210.4 47.2c7.2 1.6 12.8 8 12.8 16V316c0 10.4-9.6 17.6-19.2 16L688 289.6l-12-2.4L760 371.20000000000005l160.8 36c20 4.8 39.2-10.4 39.2-31.2v-286.4c0-15.2-10.4-28-24.8-31.2L672.8 0M512 768c-115.2 0-206.4-101.6-190.4-220 5.6-41.6 26.4-80 56-109.6l0.8-0.8L512 304.79999999999995l133.6 132.8 0.8 0.8c29.6 29.6 49.6 68 56 109.6C719.2 666.4 627.2 768 512 768m0 64c141.6 0 256-114.4 256-256 0-70.4-28-133.6-74.4-180L512 214.39999999999998 330.4 396C284.8 442.4 256 505.6 256 576 256 717.6 371.2 832 512 832z m64.8-193.6c0 35.2-28.8 64-64 64s-64-28.8-64-64 28.8-64 64-64 64 28 64 64z"  horiz-adv-x="1024" />

    
    <glyph glyph-name="bi1" unicode="&#58883;" d="M515.77856 437.01248c-5.96992 5.96992-12.1088 4.06016-13.62944-4.2496 0 0-5.62176-30.68928 14.37184-50.688 19.9936-19.97824 50.68288-14.35136 50.68288-14.35136 8.30976 1.52064 10.21952 7.64928 4.2496 13.62944l-55.67488 55.65952zM550.23104 369.792c-6.17984-6.17984-25.58976 3.21024-31.7696 9.39008l-4.83328 4.82816c-6.17984 6.17984-15.58016 25.6-9.40032 31.77984a15.83104 15.83104 0 0 0 22.38464 0l23.61856-23.61856a15.8208 15.8208 0 0 0 0-22.37952zM498.218102 526.437588a21.46304 28.1088 44.999 1 1 39.751152-39.75254 21.46304 28.1088 44.999 1 1-39.751152 39.75254ZM620.209343 404.46507a21.46304 28.1088 44.999 1 1 39.751152-39.75254 21.46304 28.1088 44.999 1 1-39.751152 39.75254ZM778.38848 435.64032l-350.52032-350.51008 20.59776-20.59776 351.38048 351.38048c53.89824 53.89824 53.89824 141.59872 0 195.50208l-57.92768 57.9328a139.27424 139.27424 0 0 1-13.63968 11.91936l50.10944-50.10944c53.90336-53.90848 53.90336-141.60896 0-195.51744zM391.33696 78.208H232.43264l-43.48928 43.4944v-63.232h222.336zM821.57056 633.13408l-57.92768 57.92768a166.52288 166.52288 0 0 1-54.49216 36.30592 15.24224 15.24224 0 0 1-6.42048 1.44384c-8.47872 0-15.36-6.88128-15.36-15.36 0-6.54848 4.1216-12.09856 9.89184-14.3104a137.0368 137.0368 0 0 0 44.66176-29.7984l57.92768-57.9328c53.89824-53.89824 53.89824-141.59872 0-195.50208l-351.38048-351.38048-154.79296 154.78784a15.26784 15.26784 0 0 1-11.1104 4.80256 15.36 15.36 0 0 1-10.89024-26.18368l-0.03072-0.0256 139.55584-139.55072H188.86144v222.33088l48.1024-48.1024a15.27808 15.27808 0 0 1 11.38176-5.13024 15.36 15.36 0 0 1 15.36 15.36c0 4.15232-1.65888 7.89504-4.33152 10.65984l0.08192 0.07168-64.41984 64.41984 351.3856 351.37536c25.8816 25.8816 60.43136 40.17152 97.30048 40.28928l-0.02048 0.17408a15.3088 15.3088 0 0 1 13.71136 15.19616 15.3088 15.3088 0 0 1-13.45024 15.16544c0.07168 0.06656 0.128 0.128 0.20992 0.19456-0.67072 0-1.3312-0.01024-1.99168-0.01536-0.0512 0-0.09216 0.01536-0.128 0.01536-0.06144 0-0.10752-0.02048-0.15872-0.02048-44.40064-0.57344-85.9392-18.02752-117.19168-49.28l-351.3856-351.3856-15.17056-15.17056V27.63776h296.87296l15.17056 15.17056 351.38048 351.38048c65.87904 65.87904 65.87904 173.07136 0 238.94528z"  horiz-adv-x="1024" />

    
    <glyph glyph-name="jianhao" unicode="&#58923;" d="M963.764706 323.764706H60.235294c-33.129412 0-60.235294 27.105882-60.235294 60.235294s27.105882 60.235294 60.235294 60.235294h903.529412c33.129412 0 60.235294-27.105882 60.235294-60.235294s-27.105882-60.235294-60.235294-60.235294z"  horiz-adv-x="1024" />

    
    <glyph glyph-name="koba" unicode="&#59050;" d=""  horiz-adv-x="1024" />

    
    <glyph glyph-name="excel3" unicode="&#58927;" d="M615.253333 350.208h206.506667v-68.266667h-206.506667v68.266667z m0 136.533333h206.506667v-68.949333h-206.506667v68.949333z m0-273.066666h206.506667V145.066667h-206.506667v68.608z m278.755556 501.077333L781.368889 844.8A163.271111 163.271111 0 0 1 673.678222 896H295.822222a68.551111 68.551111 0 0 1-62.833778-72.704v-147.114667h50.545778V823.296a13.937778 13.937778 0 0 0 12.771556 14.677333h377.941333a60.131556 60.131556 0 0 0 12.771556-1.365333v-231.765333H887.466667c0.967111-5.461333 1.450667-34.133333 1.450666-38.229334v-621.909333a14.222222 14.222222 0 0 0-12.771555-14.677333H296.391111a13.653333 13.653333 0 0 0-12.8 14.478222 0.483556 0.483556 0 0 1 0 0.199111v48.355556H233.045333v-48.355556A68.551111 68.551111 0 0 1 295.822222-128h579.697778a68.579556 68.579556 0 0 1 62.833778 72.704V566.613333a302.677333 302.677333 0 0 1-44.373334 148.138667z m-156.984889-51.541333v148.48a76.316444 76.316444 0 0 0 8.96-8.192l111.985778-130.048c2.360889-2.844444 4.721778-6.485333 7.537778-10.24h-128.483556zM85.333333 607.914667v-546.133334h472.177778v546.133334H85.333333z m292.039111-401.351111L321.422222 290.133333l-25.144889-37.632H321.422222v-45.880889H195.157333l91.648 135.025778-81.180444 121.543111h67.811555L321.422222 392.533333l47.985778 70.684445h67.754667l-81.294223-121.486222 91.704889-135.082667h-70.371555z"  horiz-adv-x="1024" />

    
    <glyph glyph-name="wenzi" unicode="&#58937;" d="M793.10058594 749.625H230.89941406C199.32558594 749.625 174.5 724.425 174.5 693.375c0-31.275 25.23779297-56.25 56.39941406-56.25H455.75v-562.3875c0-31.57470703 25.2-56.39941406 56.25-56.39941406 31.275 0 56.25 25.23691406 56.25 56.39941406V637.125h224.85058594c31.57470703 0 56.39941406 25.2 56.39941406 56.25 0 31.275-25.23779297 56.25-56.39941406 56.25z"  horiz-adv-x="1024" />

    
    <glyph glyph-name="qingkong" unicode="&#59055;" d="M796.48 469.376l215.424 215.552L821.376 875.456 605.888 660.032 425.92 840.128 234.304 648.512l542.208-542.208 191.744 191.68zM985.536 763.2L891.072 857.728a95.872 95.872 0 0 1-135.744-0.192L607.68 709.76 489.408 828.096a95.68 95.68 0 0 1-135.552 0L202.752 677.12l-0.256-0.192c-0.128-0.064-0.064-0.256-0.192-0.32L38.464 512.832a96 96 0 0 1 0-135.744l88.576-88.512 0.448-0.704 0.64-0.448 143.104-143.104 0.448-0.704 0.704-0.448 143.104-143.04c0.192-0.256 0.256-0.576 0.448-0.768s0.512-0.256 0.704-0.512L505.088-89.6a95.936 95.936 0 0 1 135.808-0.128l315.328 315.328a95.872 95.872 0 0 1 0.064 135.616l-118.4 118.4 147.776 147.648a96.32 96.32 0 0 1-0.128 135.936z m-389.888-807.68a32 32 0 0 0-45.248 0.192l-66.432 66.432 56.64 56.448a32 32 0 0 1-45.312 45.312l-56.576-56.512-99.008 99.072L441.6 268.16a32.32 32.32 0 0 1 0 45.312 32.32 32.32 0 0 1-45.248 0l-101.888-101.76-99.008 98.944 56.576 56.384a32 32 0 0 1-45.312 45.312l-56.512-56.384-66.24 66.24a31.808 31.808 0 0 0-0.064 45.248L225.28 608.832l511.936-511.872-141.568-141.44z m344.576 717.184l-147.712-147.776-15.552-15.616-29.76-29.76h0.448l163.392-163.392a32.128 32.128 0 0 0 0.064-45.312l-128.704-128.64L270.592 654.08l128.64 128.64a31.808 31.808 0 0 0 45.184 0.256l163.136-163.136-0.128-0.384 35.072 35.008 10.24 10.24 147.776 147.648a32 32 0 0 0 45.248 0l94.592-94.592a31.744 31.744 0 0 0-0.128-45.056z"  horiz-adv-x="1024" />

    
    <glyph glyph-name="shuzi1" unicode="&#58889;" d="M47.40323555555557 798.151111111111h88.78307555555556v-834.6009599999999h-88.78307555555556zM260.30193777777777 709.3680355555555h219.3726577777778v-284.12586666666664H215.91039999999998v-461.6920177777777h308.1557333333333v88.78421333333334H304.6934755555556V336.45909333333327h263.7641955555556V798.151111111111h-308.1557333333333zM666.9380266666667 798.151111111111v-88.78307555555556h219.35786666666667v-284.12586666666664H675.1027199999999v-88.78307555555556h211.1931733333333v-284.1247288888889H666.9380266666667v-88.78421333333334h308.14094222222224V798.151111111111z"  horiz-adv-x="1024" />

    
    <glyph glyph-name="duidiezhutu" unicode="&#59079;" d="M384 320h256v-320H384zM768 576h256v-576h-256zM0 256h256v-256H0v256zM0 640h256v-384H0zM384 896h256v-576H384V896zM768 768h256v-192h-256V768zM1024-64v-64H0v64h1024z"  horiz-adv-x="1024" />

    
    <glyph glyph-name="tiaoxingtu" unicode="&#59092;" d="M512 128v-256H128v256h384zM640 896v-256H128V896h512zM128 512h896v-256H128zM64-128H0V896h64v-1024z"  horiz-adv-x="1024" />

    
    <glyph glyph-name="zhuzhuangtu" unicode="&#59093;" d="M768 384h256v-384h-256V384zM0 512h256v-512H0V512zM384 896h256v-896H384zM1024-64v-64H0v64h1024z"  horiz-adv-x="1024" />

    
    <glyph glyph-name="iconjia" unicode="&#58881;" d="M902.3434168395388 325.0641317984599h-331.7799727632157v-331.8328909365038c0-32.33699770347935-26.226446372843796-58.53748421772893-58.56444253242294-58.53748421772893-32.33699770347935 0-58.56344407632318 26.200486514249597-58.56344407632318 58.53748421772893v331.8328909365038h-331.7819696754152c-32.36395601817335 0-58.56344407632318 26.200486514249597-58.56344407632318 58.53748421772893 0 32.32501623028203 26.20248342644915 58.53748421772893 58.56344407632318 58.53748421772893h331.7799727632157v331.8328909365038c0 32.32501623028203 26.226446372843796 58.53748421772893 58.56344407632318 58.53748421772893 32.33799615957912 0 58.56444253242294-26.213466443546704 58.56444253242294-58.53748421772893v-331.8338893926036h331.7799727632157c32.36395601817335 0 58.56444253242294-26.21146953134715 58.56444253242294-58.535487305529394-0.0009984560997770514-32.33699770347935-26.200486514249597-58.535487305529394-58.56444253242294-58.535487305529394z"  horiz-adv-x="1024" />

    
    <glyph glyph-name="zujianicon_xianxinghuigui" unicode="&#59586;" d="M916.48-128H115.2c-61.44 0-112.64 51.2-112.64 112.64V783.36C2.56 844.8 53.76 896 115.2 896h798.72c61.44 0 112.64-51.2 112.64-112.64v-798.72c0-61.44-48.64-112.64-110.08-112.64zM115.2 870.4C69.12 870.4 28.16 832 28.16 783.36v-798.72c0-48.64 38.4-87.04 87.04-87.04h798.72c48.64 0 87.04 38.4 87.04 87.04V783.36c0 48.64-38.4 87.04-87.04 87.04H115.2zM253.44 296.96m-61.44 0a61.44 61.44 0 1 1 122.88 0 61.44 61.44 0 1 1-122.88 0ZM504.32 371.2m-61.44 0a61.44 61.44 0 1 1 122.88 0 61.44 61.44 0 1 1-122.88 0ZM627.2 596.48m-61.44 0a61.44 61.44 0 1 1 122.88 0 61.44 61.44 0 1 1-122.88 0ZM878.08 596.48m-61.44 0a61.44 61.44 0 1 1 122.88 0 61.44 61.44 0 1 1-122.88 0ZM253.44 46.08m-61.44 0a61.44 61.44 0 1 1 122.88 0 61.44 61.44 0 1 1-122.88 0ZM76.928-3.4048L900.8128 845.0816l27.5456-26.752L104.448-30.1568z"  horiz-adv-x="1026" />

    
    <glyph glyph-name="Excel" unicode="&#58898;" d="M959.7 652.556L716.576 895.68H95.97a31.99 31.99 0 0 1-31.99-31.99v-959.7A31.99 31.99 0 0 1 95.97-128h831.74a31.99 31.99 0 0 1 31.99 31.99V652.236zM895.72-63.7H127.96V832.02h543.83v-223.93h223.93zM0 448.14h1023.68v-447.86H0zM335.895 115.124H231.928v193.54h99.808v-22.393H255.92v-62.061h69.098v-22.073H255.92v-63.98h79.975z m138.197 138.197l-46.386-69.738 45.746-68.459h-28.471l-26.232 43.826-6.078 10.877a116.444 116.444 0 0 0-6.398-10.877l-26.872-44.146H351.89l47.025 67.819-47.025 70.698h28.471l25.912-46.386 5.758-10.876 35.829 57.262z m118.363-132.119a73.257 73.257 0 0 0-38.388-9.597 63.98 63.98 0 0 0-48.305 19.194 69.418 69.418 0 0 0-18.234 49.905 76.456 76.456 0 0 0 19.833 54.702 69.098 69.098 0 0 0 52.784 20.794 71.978 71.978 0 0 0 31.99-6.718v-24.312a53.423 53.423 0 0 1-31.99 10.876 44.146 44.146 0 0 1-34.23-14.715 55.663 55.663 0 0 1-14.075-38.388 53.103 53.103 0 0 1 12.476-37.428 43.506 43.506 0 0 1 31.99-13.436 55.663 55.663 0 0 1 33.59 11.836z m145.554 56.622H639.8a49.585 49.585 0 0 1 12.156-34.229 42.227 42.227 0 0 1 31.99-12.156 68.459 68.459 0 0 1 42.547 14.715v-21.753a82.214 82.214 0 0 0-48.305-12.796 59.182 59.182 0 0 0-45.426 19.834 76.776 76.776 0 0 0-16.954 52.783 75.496 75.496 0 0 0 18.554 52.464 58.862 58.862 0 0 0 45.745 20.474 53.423 53.423 0 0 0 42.227-17.275 71.658 71.658 0 0 0 15.355-48.945z m-24.632 19.514a43.826 43.826 0 0 1-9.597 30.07 31.99 31.99 0 0 1-24.632 10.238 34.23 34.23 0 0 1-25.272-10.877 50.224 50.224 0 0 1-13.436-28.471z m56.942-82.534V319.86h24.633v-204.416z"  horiz-adv-x="1024" />

    
    <glyph glyph-name="qingkong1" unicode="&#58926;" d="M511.563459 858.568497a469.41981 469.41981 0 0 0 184.616848-37.306777A474.224253 474.224253 0 0 0 985.958587 384.062363a474.120731 474.120731 0 0 0-474.395128-474.506134A474.183094 474.183094 0 0 0 37.168331 384.062363 474.121978 474.121978 0 0 0 511.563459 858.568497m0 36.807873C229.273725 895.37637 0.62363 666.670149 0.62363 384.311815S229.273725-126.752741 511.563459-126.752741 1022.503289 101.954728 1022.503289 384.311815 793.602495 895.37637 511.563459 895.37637z m286.904595-763.102012H512.187089l282.663912 304.441062c10.851157 10.851157 10.851157 25.329345 0 36.184244L584.661593 668.79049a26.222382 26.222382 0 0 1-36.170524 0L211.436667 309.947713a26.236102 26.236102 0 0 1 0-36.182997l152.184361-141.365632c18.085262-14.474446 39.912302-25.329345 58.0038-25.329345 3.617052 0 7.234105-3.617052 7.234105-3.617052h362.373769c10.851157 0 18.085262 7.234105 18.085261 18.085262 3.617052 3.492326-3.617052 10.726431-10.851157 10.726431zM566.573837 636.101067l195.718704-181.168175-242.8701-261.021467-195.593978 181.291654z m-322.45523-347.985384l54.386747 58.018768 195.718704-181.295396-7.234104-7.234105c-25.319367-28.947644-68.857452-28.947644-97.797613-3.617052z"  horiz-adv-x="1024" />

    
    <glyph glyph-name="left-text" unicode="&#58924;" d="M882.78584893 754.77712922v-49.43520668h-321.34192255a24.72196358 24.72196358 0 0 1-24.7219628-24.71324309v-667.41452838h-49.43520667V680.61995897a24.71324309 24.71324309 0 0 1-24.7132431 24.71324308H141.22287078v49.44392716h741.56297814M907.5078125 779.49909202H116.5096277V680.61995897h346.06388612v-692.12777147h98.87041256V680.61995897H907.5078125V779.49909202z"  horiz-adv-x="1024" />

    
    <glyph glyph-name="shuxingtubiao_xzhou" unicode="&#59118;" d="M691.84 710.592c9.728 13.76 20.224 22.656 31.488 26.496s23.552 1.664 36.864-6.464c13.312-8.192 20.8-17.664 22.272-28.16a42.432 42.432 0 0 0-8.448-31.104L637.312 480.192l163.584-230.4c5.12-7.168 6.848-15.488 4.992-24.96-1.792-9.408-9.344-18.56-22.656-27.328-14.336-9.152-26.24-12.224-35.712-9.152-9.472 3.136-18.048 9.92-25.728 20.736L582.016 402.688l-139.008-194.368c-15.872-23.04-36.352-26.432-61.44-10.048a44.032 44.032 0 0 0-19.584 26.496c-2.816 11.008 0.128 22.72 8.832 34.944L526.72 479.488 390.784 669.12a36.16 36.16 0 0 0-3.84 30.272 47.808 47.808 0 0 0 18.432 27.328c13.312 9.152 24.704 13.312 34.24 12.608 9.408-0.768 18.496-7.04 27.2-18.816l115.968-163.52 109.056 153.6zM902.4 64a38.4 38.4 0 0 0 0-76.736H166.4A38.4 38.4 0 0 0 128 25.6v704a38.4 38.4 0 0 0 76.8 0V64h697.6z"  horiz-adv-x="1024" />

    
    <glyph glyph-name="shuxingtubiao_yzhou" unicode="&#59119;" d="M620.416 227.52c0-10.24-3.712-19.456-11.136-27.648-7.424-8.192-20.032-12.288-38.016-12.288-17.92 0-30.592 4.352-37.952 13.056a40.832 40.832 0 0 0-11.136 26.88V425.6L386.24 671.36a45.376 45.376 0 0 0-4.608 31.104 37.12 37.12 0 0 0 18.432 26.496 63.68 63.68 0 0 0 33.344 9.216 28.16 28.16 0 0 0 26.496-15.36l112.128-211.968 108.352 208.896a32 32 0 0 0 14.528 13.44 49.92 49.92 0 0 0 18.816 4.672 60.416 60.416 0 0 0 18.432-1.984 43.84 43.84 0 0 0 13.44-5.376c12.288-8.64 18.56-17.664 18.816-26.88a57.664 57.664 0 0 0-8.064-29.184L620.416 425.6v-198.144zM902.4 64a38.4 38.4 0 0 0 0-76.736H166.4A38.4 38.4 0 0 0 128 25.6v704a38.4 38.4 0 0 0 76.8 0V64h697.6z"  horiz-adv-x="1024" />

    
    <glyph glyph-name="jianhao1" unicode="&#58911;" d="M872.448 503.23911111h-108.88533333c-13.42577778 0-24.23466667-10.80888889-24.23466667-24.23466666s10.80888889-24.23466667 24.23466667-24.23466667h108.88533333c41.75644445 0 75.776-34.01955555 75.776-75.776 0-41.75644445-34.01955555-75.776-75.776-75.776H149.73155555c-41.75644445 0-75.776 34.01955555-75.776 75.776 0 41.75644445 34.01955555 75.776 75.776 75.776h423.02577778c13.42577778 0 24.23466667 10.80888889 24.23466667 24.23466667s-10.80888889 24.23466667-24.23466667 24.23466666H149.73155555c-68.49422222 0-124.24533333-55.75111111-124.24533333-124.24533333 0-34.24711111 13.99466667-65.30844445 36.40888889-87.83644445 22.528-22.528 53.58933333-36.40888889 87.83644444-36.40888888h722.71644445c68.49422222 0 124.24533333 55.75111111 124.24533333 124.24533333s-55.75111111 124.24533333-124.24533333 124.24533333z"  horiz-adv-x="1024" />

    
    <glyph glyph-name="shujuxiangguanxingfenxi" unicode="&#58963;" d="M741.12 274.915556h-5.973333l-110.364445 130.275555 78.222222 97.422222a82.773333 82.773333 0 1 1-26.453333 21.902223l-74.382222-92.586667-83.484445 98.56v0.853333a17.066667 17.066667 0 0 1-9.813333 4.266667h-2.702222a17.066667 17.066667 0 0 1-10.524445-4.551111v-0.853334l-78.933333-99.555555-79.217778 93.155555a82.488889 82.488889 0 1 1-26.737777-21.617777l84.195555-99.555556-103.111111-130.133333a82.773333 82.773333 0 1 1 31.857778-15.075556l94.008889 118.471111 42.666666-50.346666a71.964444 71.964444 0 1 1 101.262223-3.982223l44.8 55.751112 96.568888-113.777778a82.488889 82.488889 0 1 1 41.671112 11.235555z m0 348.871111a48.213333 48.213333 0 1 0-48.213333-48.213334 48.213333 48.213333 0 0 0 48.213333 48.213334z m-519.68-48.213334A48.213333 48.213333 0 1 0 270.222222 527.36a48.213333 48.213333 0 0 0-48.782222 48.213333zM270.222222 144.213333a48.213333 48.213333 0 1 0 48.213334 48.213334A48.213333 48.213333 0 0 0 270.222222 144.213333z m235.662222 91.306667a37.546667 37.546667 0 1 0 37.546667 37.546667 37.546667 37.546667 0 0 0-38.115555-37.688889zM529.208889 341.333333a71.964444 71.964444 0 0 1-41.528889 1.848889l-51.911111 61.013334 70.115555 88.462222 74.382223-87.893334z m211.911111-196.693333a48.213333 48.213333 0 1 0 48.213333 48.213333 48.213333 48.213333 0 0 0-48.213333-48.64z"  horiz-adv-x="1024" />

    
    <glyph glyph-name="xiaoyuan-" unicode="&#58895;" d="M465.1 867.774l-86.253-19.273c-37.608-8.404-61.282-45.703-52.879-83.312l151.315-677.165 159.45-185.212 62.993 234.918L548.411 814.896c-8.402 37.607-45.704 61.283-83.311 52.878zM641.97-120.13L467.149 82.93600000000004 315.232 762.7909999999999c-9.712 43.467 17.749 86.733 61.215 96.446L462.7 878.51a81.223 81.223 0 0 0 17.682 1.959c18.068 0 35.861-6.208 50.102-17.48 14.456-11.444 24.636-27.671 28.662-45.693L711.05 137.49199999999996l-0.699-2.61-68.381-255.012zM487.417 93.11300000000006l144.08-167.358 56.905 212.214L537.676 812.498c-5.951 26.638-30.047 45.971-57.293 45.971-4.303 0-8.638-0.481-12.883-1.43l-86.253-19.273c-31.628-7.067-51.61-38.549-44.542-70.177l150.712-674.476zM337.12 715.266l222.435 49.71 13.633-60.999-222.436-49.711zM342.421 641.117l-18.429 82.473 243.913 54.504 18.43-82.473-243.914-54.504z m7.84 65.8l8.833-39.531 200.973 44.908-8.834 39.531-200.972-44.908zM697.359 148.47199999999998l4.798-21.47L479.72 77.28999999999996l-4.798 21.47zM587.43-35.62199999999996l48.329-58.809 19.603 74.089zM473.495 681.6659999999999l126.497-566.021-21.47-4.798-126.497 566.02zM537.05 695.87l126.498-566.022-21.47-4.798L515.58 691.072zM412.208 667.968l126.497-566.02-21.47-4.799-126.497 566.02zM383.637 853.693l19.705-9.784-58.418-117.663-19.705 9.783zM428.833 865.085l19.885-9.41-63.552-134.279-19.884 9.411zM471.352 872.292l19.976-9.218-62.537-135.522-19.976 9.218zM506.074 858.693l19.979-9.213-49.621-107.596-19.979 9.214zM532.889 832.707l19.758-9.676-36.59-74.719-19.759 9.676z"  horiz-adv-x="1024" />

    
    <glyph glyph-name="zujian-meiguitu" unicode="&#59197;" d="M513.08741177 947.12414777c229.71581667-0.42719801 427.35297422-138.72272157 514.50129066-336.51522332l-267.96942222-118.7221049a270.29959111 270.29959111 0 0 1-246.53186844 162.17975467V947.12414777zM483.10590578 712.8645028999999l4.89335467-59.84650468a270.26075534 270.26075534 0 0 1-203.92861355-124.15916601l-50.25397647 32.81654557a330.14609579 330.14609579 0 0 0 249.28923535 151.18912512zM168.84379534 565.8696817800001l104.04204089-56.31241444A268.55196445 268.55196445 0 0 1 241.93342578 384c0-41.86536733 9.55369245-81.51707534 26.56392533-116.89680555l-106.954752-50.52582912A386.2643291 386.2643291 0 0 0 123.6385189 384c0 65.71076267 16.35001799 127.57674667 45.20527644 181.86968178zM276.96363179 250.98619221a270.10540999 270.10540999 0 0 1 369.37060466-101.28467399l89.78917489-152.00468423a446.61570333 446.61570333 0 0 0-612.67907356 166.06337024l153.51929401 87.22598798zM987.19910912 554.80137955C1006.38416555 501.440512 1016.86992555 443.92417621 1016.86992555 384c0-174.18012445-88.39107357-327.89359843-222.76414578-418.65367666l-130.99432732 194.84095488A269.91123001 269.91123001 0 0 1 782.06657422 384c0 32.31167488-5.70891378 63.34175801-16.1170011 92.08050688l221.249536 78.72087267z"  horiz-adv-x="1024" />

    
    <glyph glyph-name="zujian-cengjibingtu" unicode="&#59198;" d="M348.9792 64.78506700000003A356.522667 356.522667 0 0 1 512 25.600000000000023c197.802667 0 358.4 160.597333 358.4 358.4l-0.034133 5.870933h136.533333L1006.933333 384c0-273.169067-221.764267-494.933333-494.933333-494.933333-82.807467 0-160.8704 20.3776-229.4784 56.388266l66.4576 119.330134z m-104.6528-90.624C106.120533 61.986132999999995 17.066667 208.24746700000003 17.066667 384 17.066667 646.8608 222.446933 862.139733 481.314133 878.011733v-136.9088C297.847467 725.538133 153.6 571.4602669999999 153.6 384c0-124.484267 63.5904-234.222933 160.017067-298.461867l-69.290667-111.377066z m247.569067 403.319466h220.842666l0.341334-6.621866a214.3232 214.3232 0 0 0-214.2208-214.186667 214.289067 214.289067 0 0 0-214.186667 214.186667c0 116.0192 92.398933 210.602667 207.223467 213.845333v-207.223467z m250.368 29.559467h-220.808534V614.263467l6.9632 0.341333a213.947733 213.947733 0 0 0 213.845334-207.5648z m130.7648 315.357867a493.3632 493.3632 0 0 0 131.1744-286.1056h-137.591467a357.512533 357.512533 0 0 1-95.9488 195.6864l102.365867 90.4192z m-140.5952-55.876267a356.590933 356.590933 0 0 1-207.428267 75.639467V878.762667c118.784-3.072 227.2256-48.093867 311.022933-120.763734l-103.594666-91.477333z"  horiz-adv-x="1024" />

    
    <glyph glyph-name="excel" unicode="&#59255;" d="M631.4 832.1H183.3c-11.2 0-23.2-4.5-31.4-13.4-8.2-9-13.4-20.2-13.4-31.4v-806.6c0-11.2 4.5-23.2 13.4-31.4 9-9 20.2-13.4 31.4-13.4h657.2c11.2 0 23.2 4.5 31.4 13.4 9 9 13.4 20.2 13.4 31.4V578.2L631.4 832.1z m-52.3-632.9L511.2 298.9l-67.9-100.4h-94.4l116.3 161.6-108.7 151.9h95.1l61.2-93.6 64 93.6h93L558.6 360.1l116.2-160.9h-95.7zM885.3 578.2H676.2c-11.2 0-23.2 4.5-31.4 13.4-9 8.2-13.4 20.2-13.4 31.4V832.1l253.9-253.9z"  horiz-adv-x="1024" />

    
    <glyph glyph-name="shaixuan1" unicode="&#58888;" d="M551.822222 62.577778c-14.222222 0-27.022222 4.266667-31.288889 5.688889-2.844444 1.422222-5.688889 2.844444-8.533333 5.688889l-42.666667 42.666666c-8.533333 8.533333-8.533333 21.333333 0 29.866667s21.333333 8.533333 29.866667 0l38.4-38.4c8.533333-1.422222 17.066667-2.844444 19.911111-1.422222 5.688889 4.266667 14.222222 17.066667 18.488889 28.444444V440.888889c0 5.688889 2.844444 11.377778 5.688889 15.644444l164.977778 164.977778c1.422222 8.533333 1.422222 15.644444 0 24.177778-2.844444 5.688889-8.533333 11.377778-14.222223 14.222222H265.955556c-5.688889-4.266667-9.955556-8.533333-14.222223-14.222222-1.422222-8.533333-1.422222-15.644444 0-24.177778l164.977778-164.977778c4.266667-4.266667 5.688889-9.955556 5.688889-15.644444v-211.911111c0-11.377778-9.955556-21.333333-21.333333-21.333334s-21.333333 9.955556-21.333334 21.333334V433.777778L216.177778 597.333333c-2.844444 2.844444-4.266667 5.688889-5.688889 9.955556-4.266667 17.066667-4.266667 35.555556 0 54.044444 0 1.422222 1.422222 2.844444 1.422222 4.266667 8.533333 15.644444 21.333333 29.866667 36.977778 36.977778 2.844444 1.422222 5.688889 2.844444 9.955555 2.844444h479.288889c2.844444 0 7.111111-1.422222 9.955556-2.844444 17.066667-8.533333 29.866667-21.333333 38.4-38.4 0-1.422222 1.422222-2.844444 1.422222-4.266667 4.266667-17.066667 4.266667-35.555556 0-52.622222-1.422222-4.266667-2.844444-7.111111-5.688889-9.955556L620.088889 433.777778v-301.511111c0-2.844444 0-4.266667-1.422222-7.111111-2.844444-7.111111-14.222222-39.822222-36.977778-54.044445-9.955556-7.111111-19.911111-8.533333-29.866667-8.533333z"  horiz-adv-x="1024" />

    
    <glyph glyph-name="xianxinghuigui" unicode="&#58991;" d="M807.566222 157.070222v18.119111h17.578667v-18.119111h-17.578667zM203.548444 196.864v21.077333h7.964445v-21.077333h93.582222v21.077333h3.783111v-21.077333h96.568889v21.077333h7.964445v-21.077333h94.464v199.196444h-14.648889v3.868445h14.648889v189.667555h-14.648889v8.220445h22.613333v-400.952889h94.464v21.077333h7.964444v-21.077333h94.464v21.077333h7.964445v-21.077333h91.676444v21.077333h7.964445v-29.297777H203.548444v8.220444z m263.310223 210.176h17.578666v-18.090667h-17.578666v18.090667z m0 196.152889h17.578666v-18.119111h-17.578666v18.119111zM216.32 157.070222h-17.578667v18.119111h17.578667v-18.119111z m99.441778 0h-17.578667v18.119111h17.578667v-18.119111z m102.456889 0h-17.578667v18.119111h17.578667v-18.119111z m102.428444 0h-17.578667v18.119111h17.578667v-18.119111z m102.428445 0h-17.578667v18.119111h17.578667v-18.119111z m102.428444 0h-17.578667v18.119111h17.578667v-18.119111zM807.566222 157.070222v18.119111h17.578667v-18.119111h-17.578667zM203.548444 196.864v21.077333h7.964445v-21.077333h93.582222v21.077333h3.783111v-21.077333h96.568889v21.077333h7.964445v-21.077333h94.464v199.196444H484.437333v-7.111111h-17.578666v7.111111H204.572444v3.868445h262.286223v7.111111h17.578666v-7.111111H507.875556v189.667555h-14.648889v8.220445h22.613333v-197.888h303.331556v-3.868445H515.84v-199.196444h94.464v21.077333h7.964444v-21.077333h94.464v21.077333h7.964445v-21.077333h91.676444v21.077333h7.964445v-29.297777H203.548444v8.220444z m263.310223 406.328889h17.578666v-18.119111h-17.578666v18.119111zM216.32 157.070222h-17.578667v18.119111h17.578667v-18.119111z m99.441778 0h-17.578667v18.119111h17.578667v-18.119111z m102.456889 0h-17.578667v18.119111h17.578667v-18.119111z m102.428444 0h-17.578667v18.119111h17.578667v-18.119111z m102.428445 0h-17.578667v18.119111h17.578667v-18.119111z m102.428444 0h-17.578667v18.119111h17.578667v-18.119111zM218.709333 189.838222c-8.448 0-13.681778 0.199111-14.592 0.256l0.910223 21.703111c1.052444-0.028444 104.419556-4.295111 174.421333 29.610667 47.559111 23.04 90.282667 78.705778 127.004444 165.461333 32.568889 76.999111 72.590222 129.621333 118.954667 156.472889 82.545778 47.815111 190.919111 41.016889 195.498667 40.704l-1.393778-21.646222c-1.080889 0.028444-106.808889 6.542222-183.779556-38.001778-42.268444-24.462222-79.246222-73.642667-109.937777-146.204444-38.826667-91.761778-85.048889-151.125333-137.358223-176.469334-59.249778-28.672-137.585778-31.886222-169.728-31.886222z"  horiz-adv-x="1024" />

    
    <glyph glyph-name="zhuzhuangtu1" unicode="&#58943;" d="M0 337.578667h279.210667V-128H0zM372.394667 896h279.210666v-1024h-279.210666z m372.394666-279.210667H1024V-128h-279.210667z"  horiz-adv-x="1024" />

    
    <glyph glyph-name="tubiao-zhexiantulan" unicode="&#60394;" d="M927.68 606.208l-321.28-297.568-256.832 168.128-241.376-167.296v-270.208H927.68zM115.2 292.096l234.688 162.368 258.56-169.28 332.288 307.808-26.112 28.16-310.24-287.392-255.104 167.008L115.2 338.816V704H76.8v-691.2H928v38.4H115.2z"  horiz-adv-x="1024" />

    
    <glyph glyph-name="zhexiantu" unicode="&#58897;" d="M1066.666667-128H42.666667a42.666667 42.666667 0 0 0-42.666667 42.666667V853.333333a42.666667 42.666667 0 0 0 85.333333 0v-896h981.333334a42.666667 42.666667 0 0 0 0-85.333333z m-379.733334 399.530667a42.666667 42.666667 0 0 0-60.330666 0l-180.992 181.034666-211.2-211.2a42.666667 42.666667 0 0 0-60.330667 60.330667l241.322667 241.365333a42.666667 42.666667 0 0 0 60.373333 0l180.992-181.034666 319.402667 319.402666a42.666667 42.666667 0 1 0 60.330666-60.373333z"  horiz-adv-x="1109" />

    
    <glyph glyph-name="jinghao" unicode="&#58954;" d="M919.6784375 582.643125H766.296875l45.09 146.5978125c5.7365625 18.6534375-4.7334375 38.4253125-23.386875 44.161875-18.650625 5.7365625-38.424375-4.7325-44.1628125-23.386875l-51.48-167.37375H439.72625l48.7125 158.3765625c5.7375 18.6534375-4.7334375 38.4253125-23.386875 44.161875-18.6553125 5.7365625-38.424375-4.7334375-44.161875-23.386875L365.7875 582.643125H163.214375c-19.515 0-35.33625-15.8203125-35.33625-35.33625s15.8203125-35.33625 35.33625-35.33625h180.8371875l-68.19375-221.7140625H104.3215625c-19.515 0-35.33625-15.8203125-35.33625-35.33625 0-19.515 15.8203125-35.33625 35.33625-35.33625h149.799375l-55.6171875-180.826875c-5.7375-18.6525 4.7334375-38.4253125 23.386875-44.1628125a35.334375 35.334375 0 0 1 10.3996875-1.5703125c15.1059375 0 29.0896875 9.7640625 33.763125 24.9571875l62.0071875 201.6028125H580.690625l-59.240625-192.605625c-5.7375-18.6525 4.7334375-38.4253125 23.386875-44.1628125a35.334375 35.334375 0 0 1 10.3996875-1.5703125c15.105 0 29.0896875 9.7640625 33.763125 24.9571875l65.630625 213.3815625h206.1553125c19.515 0 35.33625 15.8203125 35.33625 35.33625 0 19.515-15.8203125 35.33625-35.33625 35.33625H676.3671875l68.19375 221.7140625h175.1184375c19.515 0 35.33625 15.8203125 35.33625 35.33625s-15.82125 35.33625-35.3371875 35.33625zM602.4275 290.25750000000005H349.7965625l68.19375 221.7140625h252.6309375l-68.19375-221.7140625z"  horiz-adv-x="1024" />

    
    <glyph glyph-name="duibitiaoxingtu" unicode="&#58887;" d="M640.512 247.466667h452.266667v-238.933334h-452.266667zM640.512 520.533333h366.933333v-238.933333h-366.933333zM640.512 793.6h187.733333V554.666667h-187.733333zM119.466667-68.266667h1006.933333c25.6 0 42.666667-8.533333 42.666667-25.6s-17.066667-25.6-42.666667-25.6H119.466667c-25.6 0-42.666667 8.533333-42.666667 25.6 0 17.066667 17.066667 25.6 42.666667 25.6zM597.333333 520.533333v-238.933333H238.933333V520.533333H597.333333z m0 273.066667V554.666667H418.133333V793.6H597.333333z m0-546.133333v-238.933334H145.066667V247.466667H597.333333z"  horiz-adv-x="1194" />

    
    <glyph glyph-name="sandiantu" unicode="&#58908;" d="M8.533333-76.8s0 8.533333 0 0V853.333333C8.533333 870.4 34.133333 896 51.2 896s42.666667-17.066667 42.666667-42.666667v-887.466666h964.266666c25.6 0 42.666667-17.066667 42.666667-42.666667s-17.066667-42.666667-42.666667-42.666667H51.2c-17.066667 0-42.666667 17.066667-42.666667 42.666667zM230.4 170.666667c-25.6 0-42.666667-17.066667-42.666667-42.666667s25.6-42.666667 51.2-42.666667 42.666667 17.066667 42.666667 42.666667-25.6 42.666667-51.2 42.666667zM375.466667 426.666667c-51.2 0-93.866667-42.666667-93.866667-85.333334s42.666667-85.333333 93.866667-85.333333c51.2 0 93.866667 42.666667 93.866666 85.333333s-42.666667 85.333333-93.866666 85.333334zM682.666667 622.933333c-68.266667 0-128-59.733333-128-128S614.4 366.933333 682.666667 366.933333s128 59.733333 128 128S750.933333 622.933333 682.666667 622.933333zM955.733333 435.2c-25.6 0-51.2-25.6-51.2-51.2s17.066667-51.2 51.2-51.2c25.6 0 51.2 25.6 51.2 51.2s-25.6 51.2-51.2 51.2zM785.066667 887.466667c-42.666667 0-76.8-42.666667-76.8-76.8s34.133333-68.266667 76.8-68.266667 76.8 25.6 76.8 68.266667-34.133333 76.8-76.8 76.8zM622.933333 256c-34.133333 0-68.266667-34.133333-68.266666-68.266667s34.133333-68.266667 68.266666-68.266666 68.266667 34.133333 68.266667 68.266666-34.133333 68.266667-68.266667 68.266667z"  horiz-adv-x="1109" />

    
    <glyph glyph-name="duibitiaoxingtu1" unicode="&#58910;" d="M640.512 247.466667h452.266667v-238.933334h-452.266667zM640.512 520.533333h366.933333v-238.933333h-366.933333zM640.512 793.6h187.733333V554.666667h-187.733333zM597.333333 520.533333v-238.933333H238.933333V520.533333H597.333333z m0 273.066667V554.666667H418.133333V793.6H597.333333z m0-546.133333v-238.933334H145.066667V247.466667H597.333333zM119.466667-68.266667h1006.933333c25.6 0 42.666667-8.533333 42.666667-25.6s-17.066667-25.6-42.666667-25.6H119.466667c-25.6 0-42.666667 8.533333-42.666667 25.6 0 17.066667 17.066667 25.6 42.666667 25.6z"  horiz-adv-x="1194" />

    
    <glyph glyph-name="duidiemianji" unicode="&#58907;" d="M42.7 640l312.9-85.3L668.4 768l312.9-170.7v-682.6H42.7zM42.7 213.3L355.6 384l312.8-170.7 312.9 128v-426.6H42.7z"  horiz-adv-x="1024" />

    
    <glyph glyph-name="duidiemianji_active" unicode="&#58914;" d="M42.7 640l312.9-85.3L668.4 768l312.9-170.7v-682.6H42.7zM42.7 213.3L355.6 384l312.8-170.7 312.9 128v-426.6H42.7z"  horiz-adv-x="1024" />

    
    <glyph glyph-name="excel1" unicode="&#58886;" d="M577.536 3.3279999999999745V738.56H1024v-735.232z m157.696 656.384h-131.328v-104.96h131.328z m0-157.44h-131.328v-104.96h131.328z m0-157.44h-131.328v-104.96h131.328z m0-157.44h-131.328v-104.96h131.328zM919.04 659.712h-131.328v-104.96h131.328z m0-157.44h-131.328v-104.96h131.328z m0-157.44h-131.328v-104.96h131.328z m0-157.44h-131.328v-104.96h131.328zM0 738.56L551.424 896v-1024L0 29.440000000000055z m104.96-551.424h78.848l104.96 133.888 104.96-133.888h78.848l-144.384 183.808 144.384 183.808h-78.848l-104.96-133.888-104.96 133.888H104.96l144.384-183.808-144.384-183.808z"  horiz-adv-x="1024" />

    
    <glyph glyph-name="scatterplot_active" unicode="&#58880;" d="M768 99.55600000000004c-45.511 0-85.333 39.822-85.333 85.333s39.822 85.333 85.333 85.333 85.333-39.822 85.333-85.333-39.822-85.333-85.333-85.333zM426.667 384c-45.511 0-85.334 39.822-85.334 85.333s39.823 85.334 85.334 85.334S512 514.844 512 469.333 472.178 384 426.667 384z m256 227.556c-34.134 0-56.89 22.755-56.89 56.888s22.756 56.89 56.89 56.89 56.889-22.756 56.889-56.89-22.756-56.888-56.89-56.888z m227.555-170.667c-34.133 0-56.889 22.755-56.889 56.889s22.756 56.889 56.89 56.889 56.888-22.756 56.888-56.89-22.755-56.888-56.889-56.888zM227.556 554.6669999999999c-34.134 0-56.89 22.755-56.89 56.889s22.756 56.888 56.89 56.888 56.888-22.755 56.888-56.888-22.755-56.89-56.888-56.89zM512 156.44399999999996c-34.133 0-56.889 22.756-56.889 56.89s22.756 56.888 56.889 56.888 56.889-22.755 56.889-56.889-22.756-56.889-56.889-56.889zM682.667 384c-34.134 0-56.89 22.756-56.89 56.889s22.756 56.889 56.89 56.889 56.889-22.756 56.889-56.89S716.8 384 682.666 384zM284.444 99.55600000000004c-34.133 0-56.888 22.755-56.888 56.888s22.755 56.89 56.888 56.89 56.89-22.756 56.89-56.89-22.756-56.888-56.89-56.888zM56.89-42.66700000000003V839.111h56.889v-853.333H967.11v-56.89H56.89v28.445z"  horiz-adv-x="1024" />

    
    <glyph glyph-name="zhexiantu1" unicode="&#58955;" d="M1031.966373-40.161627H88.202847V852.089492A44.136136 44.136136 0 0 1 44.101424 896C20.150237 896 0 876.561356 0 852.089492v-936.178984A44.136136 44.136136 0 0 1 44.101424-128h987.864949C1055.917559-128 1076.067797-108.561356 1076.067797-84.089492c-0.624814 24.471864-20.167593 43.927864-44.101424 43.927865zM738.078373 195.393085c-1.874441-3.818305-4.391051-7.011797-7.532475-10.187932-13.815322-15.27322-33.288678-21.018034-51.512406-16.55756a57.569627 57.569627 0 0 0-33.288678 17.824543 68.243525 68.243525 0 0 0-9.424272 14.023593L451.601356 401.130305 253.101559 185.187797c-21.989966-24.211525-58.420068-24.211525-80.410034 0-21.989966 24.194169-21.989966 63.696271 0 87.89044l223.648543 243.295458a63.696271 63.696271 0 0 0 11.940881 19.751051 55.608407 55.608407 0 0 0 43.337763 17.841898 55.608407 55.608407 0 0 0 43.355119-17.841898c5.03322-5.727458 9.424271-12.739254 11.923525-19.751051l178.418983-194.247593 254.437966 277.052745c23.239593 25.478508 60.919322 25.478508 84.176271 0 23.239593-25.478508 23.239593-66.230237 0-91.708745l-285.852203-312.094373z"  horiz-adv-x="1076" />

    
    <glyph glyph-name="shaixuan2" unicode="&#59102;" d="M892.342857 896H131.657143C69.485714 896 32.914286 826.514286 69.485714 775.314286L373.028571 310.857143c7.314286-14.628571 14.628571-29.257143 14.628572-43.885714v-354.742858c0-29.257143 32.914286-47.542857 58.514286-32.914285l175.542857 109.714285c10.971429 7.314286 18.285714 18.285714 18.285714 32.914286v248.685714c0 14.628571 3.657143 29.257143 14.628571 43.885715l303.542858 464.457143c32.914286 47.542857-3.657143 117.028571-65.828572 117.028571zM431.542857 691.2c-128 3.657143-179.2-69.485714-234.057143-113.371429 40.228571-58.514286 95.085714-146.285714 175.542857-266.971428 7.314286-14.628571 14.628571-29.257143 14.628572-43.885714v-354.742858c0-29.257143 32.914286-47.542857 58.514286-32.914285l175.542857 109.714285c10.971429 7.314286 18.285714 18.285714 18.285714 32.914286v248.685714c0 14.628571 3.657143 29.257143 14.628571 43.885715 76.8 120.685714 138.971429 212.114286 182.857143 281.6-193.828571-87.771429-277.942857 95.085714-405.942857 95.085714z"  horiz-adv-x="1024" />

    
    <glyph glyph-name="wellnum" unicode="&#59088;" d="M874.72537547 502.89422536c4.43786778 0 8.06319875 3.62677647 8.06319875 8.05886081v60.45447064c0 4.43859053-3.62605372 8.06392149-8.06319876 8.06392078H709.48402455V746.7304361399999C709.48402455 751.1625205 705.85724808 754.78857422 701.42444026 754.78857422h-64.48317757c-4.43786778 0-8.06392149-3.62605372-8.06392151-8.05813807V579.47147759H399.15208921V746.7304361399999C399.15208921 751.1625205 395.5260355 754.78857422 391.08744497 754.78857422h-64.48317758c-4.43208435 0-8.05813807-3.62605372-8.05813879-8.05813807V579.47147759H149.26956386C144.8374795 579.47147759 141.21142578 575.84614734 141.21142578 571.40755681v-60.45447064c0-4.43208435 3.62605372-8.05886081 8.05813807-8.05886081h169.27656475V265.10505189H149.26956386C144.8374795 265.10505189 141.21142578 261.47972092 141.21142578 257.04691383v-60.45447064c0-4.4328071 3.62605372-8.06319875 8.05813807-8.06319803h169.27656475v-167.25245238c0-4.43931328 3.62677647-8.06464426 8.05813879-8.06464425h64.48317759c4.43859053 0 8.06464426 3.62605372 8.06464424 8.06464425V188.52924516999997h229.72525196v-167.25245239c0-4.43931328 3.62677647-8.06464426 8.06392151-8.06464425h64.48317757c4.4328071 0 8.05886081 3.62605372 8.05886155 8.06464425V188.52924516999997h165.24135091c4.43786778 0 8.06319875 3.63039093 8.06319875 8.06319802v60.45447064c0 4.4328071-3.62605372 8.05813807-8.06319874 8.05813806H709.48402455V502.89422536h165.24135091zM628.87734118 265.10505189H399.15208921V502.89422536h229.72525197V265.10505189z m0 0"  horiz-adv-x="1025" />

    
    <glyph glyph-name="correlation-analysis" unicode="&#58885;" d="M896 832a64 64 0 0 0 64-64v-768a64 64 0 0 0-64-64H128a64 64 0 0 0-64 64V768a64 64 0 0 0 64 64h768m0 64H128a128 128 0 0 1-128-128v-768a128 128 0 0 1 128-128h768a128 128 0 0 1 128 128V768a128 128 0 0 1-128 128zM224 576A96 96 0 1 0 320 672 96 96 0 0 0 224 576z m0 128a32 32 0 1 1 32-32 32 32 0 0 1-32 32zM544 256A96 96 0 1 0 640 352 96 96 0 0 0 544 256z m0 128a32 32 0 1 1 32-32 32 32 0 0 1-32 32zM736 64a96 96 0 1 0 96 96 96 96 0 0 0-96-96z m0 128a32 32 0 1 1 32-32 32 32 0 0 1-32 32zM288 0A96 96 0 1 0 384 96 96 96 0 0 0 288 0z m0 128a32 32 0 1 1 32-32 32 32 0 0 1-32 32zM800 512A96 96 0 1 0 896 608 96 96 0 0 0 800 512z m0 128a32 32 0 1 1 32-32 32 32 0 0 1-32 32zM480 384a32 32 0 0 0-22.4 9.6l-192 192a32 32 0 0 0 45.44 45.44l192-192A32 32 0 0 0 480 384zM608 384a32 32 0 0 0-22.4 54.4l128 128a32 32 0 0 0 45.44-45.44l-128-128A32 32 0 0 0 608 384zM352 128a32 32 0 0 0-22.4 54.4l128 128a32 32 0 0 0 45.44-45.44l-128-128a32 32 0 0 0-23.04-8.96zM672 192a32 32 0 0 0-22.4 9.6l-64 64a32 32 0 0 0 45.44 45.44l64-64a32 32 0 0 0-22.4-54.4z"  horiz-adv-x="1024" />

    
    <glyph glyph-name="cluster-analysis" unicode="&#58896;" d="M224 448A224 224 0 1 0 448 672 224 224 0 0 0 224 448z m0 384A160 160 0 1 1 384 672 160 160 0 0 1 224 832zM736-128a224 224 0 1 0 224 224 224 224 0 0 0-224-224z m0 384a160 160 0 1 1 160-160 160 160 0 0 1-160 160zM928 384A96 96 0 1 0 1024 480 96 96 0 0 0 928 384z m0 128a32 32 0 1 1 32-32 32 32 0 0 1-32 32zM416 192A96 96 0 1 0 512 288 96 96 0 0 0 416 192z m0 128a32 32 0 1 1 32-32 32 32 0 0 1-32 32zM160-128A160 160 0 1 0 320 32 160 160 0 0 0 160-128z m0 256A96 96 0 1 1 256 32 96 96 0 0 1 160 128zM672 512A160 160 0 1 0 832 672 160 160 0 0 0 672 512z m0 256A96 96 0 1 1 768 672 96 96 0 0 1 672 768z"  horiz-adv-x="1024" />

    
    <glyph glyph-name="CSV" unicode="&#58960;" d="M947.2 25.6h-25.6v-102.4a51.2 51.2 0 0 0-51.2-51.2H153.6a51.2 51.2 0 0 0-51.2 51.2v102.4H76.8a51.2 51.2 0 0 0-51.2 51.2V384a51.2 51.2 0 0 0 51.2 51.2h25.6V844.8a51.2 51.2 0 0 0 51.2 51.2h460.8v-51.2H153.6v-409.6h716.8v204.8h-204.8V896h51.2l204.8-204.8v-256h25.6a51.2 51.2 0 0 0 51.2-51.2v-307.2a51.2 51.2 0 0 0-51.2-51.2zM716.8 823.6032V691.2h132.4032zM256 307.2a51.2 51.2 0 0 0 51.2-51.2v25.6h51.2a76.8 76.8 0 0 1-76.8 76.8H230.4a76.8 76.8 0 0 1-76.8-76.8v-102.4a76.8 76.8 0 0 1 76.8-76.8h51.2a76.8 76.8 0 0 1 76.8 76.8h-51.2v25.6a51.2 51.2 0 0 0-102.4 0v51.2a51.2 51.2 0 0 0 51.2 51.2z m358.4-102.4a51.2 51.2 0 0 1-51.2 51.2h-102.4v51.2h153.6v51.2h-153.6c-28.16 0-51.2-51.2-51.2-51.2v-51.2c0-28.288 51.2-51.2 51.2-51.2h102.4v-51.2h-153.6v-51.2h153.6a51.2 51.2 0 0 1 51.2 51.2v51.2z m204.8 153.6l-51.2-170.6752L716.8 358.4h-51.2l76.8-256h51.2l76.8 256h-51.2z m51.2-332.8H153.6v-102.4h716.8v102.4z"  horiz-adv-x="1024" />

    
    <glyph glyph-name="bingtu1" unicode="&#58959;" d="M466.944 789.504c-249.856 0-450.56-200.704-450.56-450.56s200.704-450.56 450.56-450.56 450.56 200.704 450.56 450.56h-450.56v450.56zM557.056 879.616v-450.56h450.56c0 249.856-200.704 450.56-450.56 450.56"  horiz-adv-x="1024" />

    
    <glyph glyph-name="meiguitu1" unicode="&#58966;" d="M573.44-123.904c-4.096 4.096-4.096 4.096-4.096 8.192v172.032l-4.096 323.584c0 4.096 4.096 8.192 8.192 12.288 4.096 0 12.288 0 12.288-4.096l352.256-352.256c4.096-4.096 4.096-12.288 0-16.384-94.208-94.208-225.28-147.456-360.448-147.456l-4.096 4.096M872.448 769.024c0-4.096 0-4.096-4.096-8.192l-98.304-98.304-180.224-184.32c-4.096-4.096-8.192-4.096-12.288-4.096-4.096 0-8.192 4.096-8.192 8.192v401.408c0 4.096 4.096 12.288 12.288 12.288 106.496 0 208.896-40.96 286.72-118.784 4.096-4.096 4.096-4.096 4.096-8.192M897.024 117.75999999999999c-4.096 0-4.096 0-8.192 4.096l-98.304 98.304-188.416 184.32c-4.096 4.096-4.096 8.192-4.096 12.288s4.096 8.192 8.192 8.192h405.504c4.096 0 12.288-4.096 12.288-12.288 0-110.592-45.056-212.992-122.88-290.816 0-4.096-4.096-4.096-4.096-4.096M856.064 445.44h-249.856c-4.096 0-4.096 0-4.096 4.096v8.192l176.128 176.128c4.096 4.096 8.192 4.096 8.192 0 49.152-49.152 73.728-110.592 73.728-180.224l-4.096-8.192M544.768 809.984l4.096-4.096V482.304c0-4.096 0-8.192-4.096-8.192h-8.192l-229.376 229.376c-4.096 4.096-4.096 8.192 0 12.288 61.44 61.44 143.36 98.304 233.472 98.304l4.096-4.096M303.104 154.62400000000002c0 4.096 0 4.096 4.096 4.096l81.92 81.92 147.456 151.552c4.096 4.096 4.096 4.096 8.192 0 4.096 0 4.096-4.096 4.096-8.192v-323.584c0-4.096-4.096-8.192-8.192-8.192-86.016 0-172.032 32.768-233.472 98.304-4.096 0-4.096 4.096-4.096 4.096M102.4 416.768s4.096 4.096 8.192 4.096h139.264l262.144 4.096c4.096 0 8.192-4.096 8.192-8.192s0-8.192-4.096-12.288l-286.72-286.72c-4.096-4.096-12.288-4.096-16.384 0-77.824 77.824-118.784 180.224-118.784 290.816 4.096 4.096 4.096 8.192 8.192 8.192M155.648 814.08c4.096 0 8.192 0 8.192-4.096l122.88-122.88 225.28-225.28c4.096-4.096 4.096-8.192 4.096-12.288 0-4.096-8.192-8.192-12.288-8.192h-491.52c-8.192 0-12.288 4.096-12.288 12.288 0 131.072 53.248 258.048 147.456 352.256 4.096 4.096 4.096 8.192 8.192 8.192"  horiz-adv-x="1024" />

    
    <glyph glyph-name="icon--" unicode="&#58882;" d="M861.52533333 471.38133333h-233.01688888V704.39822222c0 64.07964445-52.4288 116.50844445-116.50844445 116.50844445s-116.50844445-52.4288-116.50844445-116.50844445v-233.01688889H162.47466667c-64.07964445 0-116.50844445-52.4288-116.50844445-116.50844444s52.4288-116.50844445 116.50844445-116.50844444h233.01688888v-233.0168889c0-64.07964445 52.4288-116.50844445 116.50844445-116.50844444s116.50844445 52.4288 116.50844445 116.50844444v233.0168889h233.01688888c64.07964445 0 116.50844445 52.4288 116.50844445 116.50844444s-52.4288 116.50844445-116.50844445 116.50844444z m0-174.76266666H570.25422222v-291.27111112c0-32.03982222-26.2144-58.25422222-58.25422222-58.25422222s-58.25422222 26.2144-58.25422222 58.25422222V296.61866667000004H162.47466667c-32.03982222 0-58.25422222 26.2144-58.25422222 58.25422222s26.2144 58.25422222 58.25422222 58.25422222h291.27111111V704.39822222c0 32.03982222 26.2144 58.25422222 58.25422222 58.25422223s58.25422222-26.2144 58.25422222-58.25422223v-291.27111111h291.27111111c32.03982222 0 58.25422222-26.2144 58.25422222-58.25422222s-26.2144-58.25422222-58.25422222-58.25422222z"  horiz-adv-x="1024" />

    
    <glyph glyph-name="bi11" unicode="&#58884;" d="M79.36-20.480000000000018h343.04v-51.2H79.36zM550.4-20.480000000000018h376.32v-51.2H550.4zM629.76 737.28l215.04-215.04L373.76 51.200000000000045l-215.04 215.04L629.76 737.28z m0 0M716.8 821.76l215.04-215.04-64-64-215.04 215.04L716.8 821.76z m0 0M138.24 243.20000000000005l215.04-215.04L51.2-56.32000000000005l87.04 299.52z m0 0M798.72 824.3199999999999L931.84 691.2c23.04-23.04 20.48-58.88-2.56-81.92-23.04-23.04-61.44-25.6-81.92-2.56l-133.12 133.12c-23.04 20.48-23.04 58.88 2.56 81.92 23.04 23.04 58.88 25.6 81.92 2.56z m0 0"  horiz-adv-x="1024" />

    
    <glyph glyph-name="Excel1" unicode="&#58957;" d="M2.136664 613.366111v-530.25765H515.379314V613.366111H2.136664z m313.230237-384.271101l-56.569192 83.799058-56.567969-83.799058H137.15427l88.053419 127.954706-75.43944 110.329846h64.927587l41.949638-70.584996 0.052554-0.047664 46.054894 70.584995h62.875571l-73.339759-110.282181 88.005755-127.954706h-64.927588zM934.644704 579.927639a214.364312 214.364312 0 0 1-63.337549 156.308966c-34.570198 33.83812-67.940228 69.210059-101.31148 104.051577a155.38623 155.38623 0 0 1-107.588526 53.392782c-145.628454 2.601992-291.324127 2.802427-436.953804 1.665813-32.868942 0.563419-60.086587-25.402728-61.069209-58.261893-3.270517-49.454962-0.864072-99.310794-0.864071-149.567496h51.789299c0 41.381331 1.335828 80.557873-0.402093 119.599977a27.691845 27.691845 0 0 0 6.063168 27.751732 27.688179 27.688179 0 0 0 27.308085 7.81942c128.413019-1.398158 256.822371-0.734522 385.164504-0.734522 8.410949 0 16.88545-0.864072 28.4337-1.532597v-224.78328c65.538671 0 127.874044-1.202612 190.142197 0.601306a26.704335 26.704335 0 0 0 26.448903-6.554478 26.689669 26.689669 0 0 0 6.92235-26.353573c-0.353206-201.823663-0.353206-403.605773 0-605.338996a23.746692 23.746692 0 0 0-6.340599-21.750894 23.746692 23.746692 0 0 0-21.688564-6.550812 117383.870727 117383.870727 0 0 1-614.018821 0 22.56608 22.56608 0 0 0-21.874334 5.696517 22.545303 22.545303 0 0 0-5.958061 21.802226 255.300774 255.300774 0 0 1-1.671923 31.567335H163.7205c-6.278269-88.564285 16.417361-113.861906 98.440611-113.528255h580.31514c10.393303-0.233434 20.790272 0.300653 31.102911 1.603482a66.738838 66.738838 0 0 1 61.734067 72.28014c0.200435 203.696022 1.335828 407.258828-0.668525 610.815523z m-217.24007 89.566462V810.989188l129.945616-141.495087H717.404634zM696.846574 495.436835h-90.568637v-64.073293c67.744681 0 134.152312-1.800251 200.225069 0.734522v63.471987c-36.507331-0.735744-73.081882-0.400871-109.656432-0.400871v0.267655zM710.195075 361.484958h-104.184793v-64.068405c67.877897 0 134.352747-1.737921 200.693159 0.663637v63.537984c-32.234638-0.729633-64.406945-0.400871-96.574363-0.40087l0.065997 0.267654zM806.503006 228.001171c-60.067032-1.598594-120.937027-0.46809-181.46726-0.663636a120.522713 120.522713 0 0 1-19.025464-3.203298v-58.80209c7.810865-0.801741 14.551113-2.133902 21.292582-2.201122 59.600164 0 119.266326 1.069396 178.866491-0.601306h0.534086v65.471452h-0.200435z"  horiz-adv-x="1025" />

    
    <glyph glyph-name="shujuxiangguanxingfenxi1" unicode="&#58913;" d="M192 830.016c35.264 0 64-28.736 64-64v-64c0-35.264-28.736-64-64-64H128c-35.264 0-64 28.736-64 64v64c0 35.264 28.736 64 64 64h64m0 64H128c-70.4 0-128-57.6-128-128v-64c0-70.4 57.6-128 128-128h64c70.4 0 128 57.6 128 128v64c0 70.4-57.6 128-128 128zM896 832c35.328 0 64-28.736 64-64v-64c0-35.264-28.672-64-64-64h-64c-35.328 0-64 28.736-64 64V768c0 35.264 28.672 64 64 64h64m0 64h-64c-70.4 0-128-57.6-128-128v-64c0-70.4 57.6-128 128-128h64c70.4 0 128 57.6 128 128V768c0 70.4-57.6 128-128 128zM192 257.984c35.264 0 64-28.672 64-64v-64c0-35.328-28.736-64-64-64H128c-35.264 0-64 28.672-64 64v64c0 35.328 28.736 64 64 64h64m0 64H128c-70.4 0-128-57.6-128-128v-64c0-70.4 57.6-128 128-128h64c70.4 0 128 57.6 128 128v64c0 70.4-57.6 128-128 128zM896 257.984a64 64 0 0 0 64-64v-64a64 64 0 0 0-64-64h-64a64 64 0 0 0-64 64v64a64 64 0 0 0 64 64h64m0 64.064h-64c-70.4 0-128-57.6-128-128v-64c0-70.4 57.6-128 128-128h64c70.4 0 128 57.6 128 128v64c0 70.4-57.6 128-128 128zM511.232 636.8c35.264 0 64-28.736 64-64s-28.736-64-64.064-64c-35.264 0-64 28.736-64 64s28.8 64 64.064 64m0 64c-70.464 0-128.064-57.6-128.064-128s57.6-128 128-128h0.064c70.4 0 128 57.6 128 128s-57.6 128-128 128zM918.976 591.936l-42.368 42.368-159.168-159.488-103.936 103.872-45.12-45.312 103.936-103.744-159.104-159.296-160.384 159.488 103.616 103.744-45.248 45.248-103.744-103.872-160 159.104-42.432-42.368 160.064-159.168-125.376-125.504 45.248-45.248 125.504 125.632 160.384-159.488-0.448-0.448 42.432-42.176 0.512 0.384 18.432 18.496 182.912 183.168 125.312-125.12 45.248 44.992-125.44 125.312z"  horiz-adv-x="1024" />

    
    <glyph glyph-name="zujian-cengjibingtu-copy" unicode="&#59655;" d="M348.9792 64.78506700000003A356.522667 356.522667 0 0 1 512 25.600000000000023c197.802667 0 358.4 160.597333 358.4 358.4l-0.034133 5.870933h136.533333L1006.933333 384c0-273.169067-221.764267-494.933333-494.933333-494.933333-82.807467 0-160.8704 20.3776-229.4784 56.388266l66.4576 119.330134z m-104.6528-90.624C106.120533 61.986132999999995 17.066667 208.24746700000003 17.066667 384 17.066667 646.8608 222.446933 862.139733 481.314133 878.011733v-136.9088C297.847467 725.538133 153.6 571.4602669999999 153.6 384c0-124.484267 63.5904-234.222933 160.017067-298.461867l-69.290667-111.377066z m247.569067 403.319466h220.842666l0.341334-6.621866a214.3232 214.3232 0 0 0-214.2208-214.186667 214.289067 214.289067 0 0 0-214.186667 214.186667c0 116.0192 92.398933 210.602667 207.223467 213.845333v-207.223467z m250.368 29.559467h-220.808534V614.263467l6.9632 0.341333a213.947733 213.947733 0 0 0 213.845334-207.5648z m130.7648 315.357867a493.3632 493.3632 0 0 0 131.1744-286.1056h-137.591467a357.512533 357.512533 0 0 1-95.9488 195.6864l102.365867 90.4192z m-140.5952-55.876267a356.590933 356.590933 0 0 1-207.428267 75.639467V878.762667c118.784-3.072 227.2256-48.093867 311.022933-120.763734l-103.594666-91.477333z"  horiz-adv-x="1024" />

    
    <glyph glyph-name="meiguitu1-copy" unicode="&#59656;" d="M573.44-123.904c-4.096 4.096-4.096 4.096-4.096 8.192v172.032l-4.096 323.584c0 4.096 4.096 8.192 8.192 12.288 4.096 0 12.288 0 12.288-4.096l352.256-352.256c4.096-4.096 4.096-12.288 0-16.384-94.208-94.208-225.28-147.456-360.448-147.456l-4.096 4.096M872.448 769.024c0-4.096 0-4.096-4.096-8.192l-98.304-98.304-180.224-184.32c-4.096-4.096-8.192-4.096-12.288-4.096-4.096 0-8.192 4.096-8.192 8.192v401.408c0 4.096 4.096 12.288 12.288 12.288 106.496 0 208.896-40.96 286.72-118.784 4.096-4.096 4.096-4.096 4.096-8.192M897.024 117.75999999999999c-4.096 0-4.096 0-8.192 4.096l-98.304 98.304-188.416 184.32c-4.096 4.096-4.096 8.192-4.096 12.288s4.096 8.192 8.192 8.192h405.504c4.096 0 12.288-4.096 12.288-12.288 0-110.592-45.056-212.992-122.88-290.816 0-4.096-4.096-4.096-4.096-4.096M856.064 445.44h-249.856c-4.096 0-4.096 0-4.096 4.096v8.192l176.128 176.128c4.096 4.096 8.192 4.096 8.192 0 49.152-49.152 73.728-110.592 73.728-180.224l-4.096-8.192M544.768 809.984l4.096-4.096V482.304c0-4.096 0-8.192-4.096-8.192h-8.192l-229.376 229.376c-4.096 4.096-4.096 8.192 0 12.288 61.44 61.44 143.36 98.304 233.472 98.304l4.096-4.096M303.104 154.62400000000002c0 4.096 0 4.096 4.096 4.096l81.92 81.92 147.456 151.552c4.096 4.096 4.096 4.096 8.192 0 4.096 0 4.096-4.096 4.096-8.192v-323.584c0-4.096-4.096-8.192-8.192-8.192-86.016 0-172.032 32.768-233.472 98.304-4.096 0-4.096 4.096-4.096 4.096M102.4 416.768s4.096 4.096 8.192 4.096h139.264l262.144 4.096c4.096 0 8.192-4.096 8.192-8.192s0-8.192-4.096-12.288l-286.72-286.72c-4.096-4.096-12.288-4.096-16.384 0-77.824 77.824-118.784 180.224-118.784 290.816 4.096 4.096 4.096 8.192 8.192 8.192M155.648 814.08c4.096 0 8.192 0 8.192-4.096l122.88-122.88 225.28-225.28c4.096-4.096 4.096-8.192 4.096-12.288 0-4.096-8.192-8.192-12.288-8.192h-491.52c-8.192 0-12.288 4.096-12.288 12.288 0 131.072 53.248 258.048 147.456 352.256 4.096 4.096 4.096 8.192 8.192 8.192"  horiz-adv-x="1024" />

    
    <glyph glyph-name="bingtu1-copy" unicode="&#59657;" d="M466.944 789.504c-249.856 0-450.56-200.704-450.56-450.56s200.704-450.56 450.56-450.56 450.56 200.704 450.56 450.56h-450.56v450.56zM557.056 879.616v-450.56h450.56c0 249.856-200.704 450.56-450.56 450.56"  horiz-adv-x="1024" />

    
    <glyph glyph-name="zujian-meiguitu-copy" unicode="&#59658;" d="M513.08741177 947.12414777c229.71581667-0.42719801 427.35297422-138.72272157 514.50129066-336.51522332l-267.96942222-118.7221049a270.29959111 270.29959111 0 0 1-246.53186844 162.17975467V947.12414777zM483.10590578 712.8645028999999l4.89335467-59.84650468a270.26075534 270.26075534 0 0 1-203.92861355-124.15916601l-50.25397647 32.81654557a330.14609579 330.14609579 0 0 0 249.28923535 151.18912512zM168.84379534 565.8696817800001l104.04204089-56.31241444A268.55196445 268.55196445 0 0 1 241.93342578 384c0-41.86536733 9.55369245-81.51707534 26.56392533-116.89680555l-106.954752-50.52582912A386.2643291 386.2643291 0 0 0 123.6385189 384c0 65.71076267 16.35001799 127.57674667 45.20527644 181.86968178zM276.96363179 250.98619221a270.10540999 270.10540999 0 0 1 369.37060466-101.28467399l89.78917489-152.00468423a446.61570333 446.61570333 0 0 0-612.67907356 166.06337024l153.51929401 87.22598798zM987.19910912 554.80137955C1006.38416555 501.440512 1016.86992555 443.92417621 1016.86992555 384c0-174.18012445-88.39107357-327.89359843-222.76414578-418.65367666l-130.99432732 194.84095488A269.91123001 269.91123001 0 0 1 782.06657422 384c0 32.31167488-5.70891378 63.34175801-16.1170011 92.08050688l221.249536 78.72087267z"  horiz-adv-x="1024" />

    
    <glyph glyph-name="sandiantu-copy" unicode="&#60395;" d="M8.533333-76.79999999999995s0 8.533333 0 0V853.333333C8.533333 870.4 34.133333 896 51.2 896s42.666667-17.066667 42.666667-42.666667v-887.466666h964.266666c25.6 0 42.666667-17.066667 42.666667-42.666667s-17.066667-42.666667-42.666667-42.666667H51.2c-17.066667 0-42.666667 17.066667-42.666667 42.666667zM230.4 170.66666699999996c-25.6 0-42.666667-17.066667-42.666667-42.666667s25.6-42.666667 51.2-42.666667 42.666667 17.066667 42.666667 42.666667-25.6 42.666667-51.2 42.666667zM375.466667 426.666667c-51.2 0-93.866667-42.666667-93.866667-85.333334s42.666667-85.333333 93.866667-85.333333c51.2 0 93.866667 42.666667 93.866666 85.333333s-42.666667 85.333333-93.866666 85.333334zM682.666667 622.933333c-68.266667 0-128-59.733333-128-128S614.4 366.93333299999995 682.666667 366.93333299999995s128 59.733333 128 128S750.933333 622.933333 682.666667 622.933333zM955.733333 435.2c-25.6 0-51.2-25.6-51.2-51.2s17.066667-51.2 51.2-51.2c25.6 0 51.2 25.6 51.2 51.2s-25.6 51.2-51.2 51.2zM785.066667 887.466667c-42.666667 0-76.8-42.666667-76.8-76.8s34.133333-68.266667 76.8-68.266667 76.8 25.6 76.8 68.266667-34.133333 76.8-76.8 76.8zM622.933333 256c-34.133333 0-68.266667-34.133333-68.266666-68.266667s34.133333-68.266667 68.266666-68.266666 68.266667 34.133333 68.266667 68.266666-34.133333 68.266667-68.266667 68.266667z"  horiz-adv-x="1109" />

    


  </font>
</defs>
</svg>
